<svg id="kity_svg_6" xmlns="http://www.w3.org/2000/svg" xmlns:xlink="http://www.w3.org/1999/xlink" version="1.1" width="1472" height="850" style="background: rgb(251, 251, 251); visibility: visible;" viewBox="0 0 1472 850"><defs id="kity_defs_7"><linearGradient id="kity_linearGradient_17" x1="0" y1="0" x2="0" y2="1"><stop id="kity_stop_18" offset="0" stop-color="rgb(255, 255, 255)"></stop><stop id="kity_stop_19" offset="1" stop-color="rgb(204, 204, 204)"></stop></linearGradient><marker id="kity_marker_2" orient="auto" refX="6" refY="0" viewBox="-7 -7 14 14" markerWidth="7" markerHeight="7" markerUnits="userSpaceOnUse"><path id="kity_path_3" fill="rgb(115, 161, 191)" stroke="none" d="M6,0A6,6,0,1,1,-6,0A6,6,0,1,1,6,0"></path></marker></defs><g id="kity_g_8"><g id="minder1" text-rendering="optimize-speed"><g id="minder_connect_group1"><path id="kity_path_31" fill="none" stroke="rgb(115, 161, 191)" stroke-width="1" d="M733,569.5A171.5,17.5,0,0,1,904.5,552"></path><path id="kity_path_33" fill="none" stroke="rgb(115, 161, 191)" stroke-width="1" d="M1021.5,552C1036.5,552,1036.5,501.5,1051.5,501.5L1202.5,501.5"></path><path id="kity_path_35" fill="none" stroke="rgb(115, 161, 191)" stroke-width="1" d="M1202.5,501.5C1217.5,501.5,1217.5,466.5,1232.5,466.5L1307.5,466.5"></path><path id="kity_path_37" fill="none" stroke="rgb(115, 161, 191)" stroke-width="1" d="M1202.5,501.5C1217.5,501.5,1217.5,518.5,1232.5,518.5L1367.5,518.5"></path><path id="kity_path_39" fill="none" stroke="rgb(115, 161, 191)" stroke-width="1" d="M1021.5,552C1036.5,552,1036.5,648.5,1051.5,648.5L1144.5,648.5"></path><path id="kity_path_41" fill="none" stroke="rgb(115, 161, 191)" stroke-width="1" d="M1144.5,648.5C1159.5,648.5,1159.5,570.5,1174.5,570.5L1281.5,570.5"></path><path id="kity_path_43" fill="none" stroke="rgb(115, 161, 191)" stroke-width="1" d="M1144.5,648.5C1159.5,648.5,1159.5,622.5,1174.5,622.5L1251.5,622.5"></path><path id="kity_path_45" fill="none" stroke="rgb(115, 161, 191)" stroke-width="1" d="M1144.5,648.5C1159.5,648.5,1159.5,674.5,1174.5,674.5L1235.5,674.5"></path><path id="kity_path_47" fill="none" stroke="rgb(115, 161, 191)" stroke-width="1" d="M1144.5,648.5C1159.5,648.5,1159.5,726.5,1174.5,726.5L1252.5,726.5"></path><path id="kity_path_49" fill="none" stroke="rgb(115, 161, 191)" stroke-width="1" d="M733,569.5A223.5,109,0,0,0,509.5,460.5"></path><path id="kity_path_63" fill="none" stroke="rgb(115, 161, 191)" stroke-width="1" d="M733,569.5A218.5,316,0,0,0,514.5,253.5"></path><path id="kity_path_69" fill="none" stroke="rgb(115, 161, 191)" stroke-width="1" d="M733,569.5A270.5,210,0,0,1,1003.5,359.5"></path><path id="kity_path_73" fill="none" stroke="rgb(115, 161, 191)" stroke-width="1" d="M733,569.5A160.5,471,0,0,1,893.5,98.5"></path><path id="kity_path_89" fill="none" stroke="rgb(115, 161, 191)" stroke-width="1" d="M733,569.5A160.5,98,0,0,1,572.5,667.5"></path><path id="kity_path_308" fill="none" stroke="rgb(115, 161, 191)" stroke-width="1" d="M410.5,253.5C377.5,253.5,377.5,240.5,344.5,240.5L262.5,240.5"></path><path id="kity_path_309" fill="none" stroke="rgb(115, 161, 191)" stroke-width="1" d="M410.5,253.5C374.5,253.5,374.5,297.5,338.5,297.5L253.5,297.5"></path><path id="kity_path_310" fill="none" stroke="rgb(115, 161, 191)" stroke-width="1" d="M175.5,398.5C160.5,398.5,160.5,372.5,145.5,372.5L41.5,372.5"></path><path id="kity_path_311" fill="none" stroke="rgb(115, 161, 191)" stroke-width="1" d="M175.5,398.5C160.5,398.5,160.5,424.5,145.5,424.5L42.5,424.5"></path><path id="kity_path_312" fill="none" stroke="rgb(115, 161, 191)" stroke-width="1" d="M415.5,460.5C340,460.5,340,398.5,264.5,398.5L175.5,398.5"></path><path id="kity_path_313" fill="none" stroke="rgb(115, 161, 191)" stroke-width="1" d="M174.5,526.5C159.5,526.5,159.5,500.5,144.5,500.5L75.5,500.5"></path><path id="kity_path_314" fill="none" stroke="rgb(115, 161, 191)" stroke-width="1" d="M174.5,526.5C159.5,526.5,159.5,552.5,144.5,552.5L20.5,552.5"></path><path id="kity_path_315" fill="none" stroke="rgb(115, 161, 191)" stroke-width="1" d="M415.5,460.5C336.5,460.5,336.5,526.5,257.5,526.5L174.5,526.5"></path><path id="kity_path_320" fill="none" stroke="rgb(115, 161, 191)" stroke-width="1" d="M733,569.5A120.5,212,0,0,0,853.5,781.5"></path><path id="kity_path_327" fill="none" stroke="rgb(115, 161, 191)" stroke-width="1" d="M1067.5,359.5C1082.5,359.5,1082.5,373.5,1097.5,373.5L1192.5,373.5"></path><path id="kity_path_370" fill="none" stroke="rgb(115, 161, 191)" stroke-width="1" d="M733,569.5A0.5,430,0,0,1,733.5,139.5"></path><path id="kity_path_377" fill="none" stroke="rgb(115, 161, 191)" stroke-width="1" d="M1346.5,184.5C1361.5,184.5,1361.5,45.5,1376.5,45.5L1432.5,45.5"></path><path id="kity_path_378" fill="none" stroke="rgb(115, 161, 191)" stroke-width="1" d="M1346.5,184.5C1361.5,184.5,1361.5,97.5,1376.5,97.5L1426.5,97.5"></path><path id="kity_path_379" fill="none" stroke="rgb(115, 161, 191)" stroke-width="1" d="M1346.5,184.5C1361.5,184.5,1361.5,149.5,1376.5,149.5L1452.5,149.5"></path><path id="kity_path_380" fill="none" stroke="rgb(115, 161, 191)" stroke-width="1" d="M1346.5,184.5C1361.5,184.5,1361.5,201.5,1376.5,201.5L1423.5,201.5"></path><path id="kity_path_381" fill="none" stroke="rgb(115, 161, 191)" stroke-width="1" d="M1346.5,184.5C1361.5,184.5,1361.5,253.5,1376.5,253.5L1430.5,253.5"></path><path id="kity_path_382" fill="none" stroke="rgb(115, 161, 191)" stroke-width="1" d="M1346.5,184.5C1361.5,184.5,1361.5,305.5,1376.5,305.5L1437.5,305.5"></path><path id="kity_path_383" fill="none" stroke="rgb(115, 161, 191)" stroke-width="1" d="M1084.5,98.5C1130.5,98.5,1130.5,184.5,1176.5,184.5L1346.5,184.5"></path><path id="kity_path_390" fill="none" stroke="rgb(115, 161, 191)" stroke-width="1" d="M445.5,667.5C400.5,667.5,400.5,612.5,355.5,612.5L258.5,612.5"></path><path id="kity_path_391" fill="none" stroke="rgb(115, 161, 191)" stroke-width="1" d="M224.5,761.5C209.5,761.5,209.5,674.5,194.5,674.5L124.5,674.5"></path><path id="kity_path_392" fill="none" stroke="rgb(115, 161, 191)" stroke-width="1" d="M224.5,761.5C209.5,761.5,209.5,726.5,194.5,726.5L138.5,726.5"></path><path id="kity_path_393" fill="none" stroke="rgb(115, 161, 191)" stroke-width="1" d="M224.5,761.5C209.5,761.5,209.5,778.5,194.5,778.5L131.5,778.5"></path><path id="kity_path_394" fill="none" stroke="rgb(115, 161, 191)" stroke-width="1" d="M224.5,761.5C209.5,761.5,209.5,830.5,194.5,830.5L152.5,830.5"></path><path id="kity_path_395" fill="none" stroke="rgb(115, 161, 191)" stroke-width="1" d="M445.5,667.5C414.5,667.5,414.5,761.5,383.5,761.5L224.5,761.5"></path></g><g id="minder_node1"><path id="node_outline1" fill="rgb(115, 161, 191)" stroke="rgb(115, 161, 191)" d="M675.5,549.5h115a5,5,0,0,1,5,5v30a5,5,0,0,1,-5,5h-115a5,5,0,0,1,-5,-5v-30a5,5,0,0,1,5,-5z" stroke-width="3"></path><g id="node_text1" fill="white"><text id="kity_text_22" text-rendering="inherit" font-size="16" dy=".8em" y="561.5" x="694.5">Framwork</text></g></g><g id="kity_g_14" display="none"><path id="kity_path_15" fill="rgba(0, 92, 153, 0.5)" stroke="none" d="M376.5,817.5h70v15h-70z"></path><path id="kity_path_16" fill="none" stroke="rgb(0, 76, 128)" d="M376.5,832.5L446.5,832.5" stroke-width="1"></path></g><g id="minder_node2"><g id="node_expander9" style="cursor: pointer;"><path id="kity_path_223" fill="white" stroke="gray" d="M905.5,552A6,6,0,1,1,893.5,552A6,6,0,1,1,905.5,552"></path><path id="kity_path_224" fill="none" stroke="gray" d="M895,552L904,552"></path></g><path id="node_outline10" fill="rgb(238, 243, 246)" stroke="rgb(115, 161, 191)" d="M909.5,528.5h109a3,3,0,0,1,3,3v41a3,3,0,0,1,-3,3h-109a3,3,0,0,1,-3,-3v-41a3,3,0,0,1,3,-3z" stroke-width="1"></path><g id="node_text10" fill="black"><text id="kity_text_114" text-rendering="inherit" font-size="14" dy=".8em" y="534" x="926.5">Controller</text><text id="kity_text_115" text-rendering="inherit" font-size="14" dy=".8em" y="555" x="926.5">(bluesky,...)</text></g></g><g id="minder_node3"><g id="node_expander3" style="cursor: pointer;"><path id="kity_path_205" fill="white" stroke="gray" d="M1061.5,478.5A6,6,0,1,1,1049.5,478.5A6,6,0,1,1,1061.5,478.5"></path><path id="kity_path_206" fill="none" stroke="gray" d="M1051,478.5L1060,478.5"></path></g><path id="node_outline4" fill="none" stroke="none" d="M1066.5,458.5h131a5,5,0,0,1,5,5v30a5,5,0,0,1,-5,5h-131a5,5,0,0,1,-5,-5v-30a5,5,0,0,1,5,-5z"></path><g id="node_text4" fill="black"><text id="kity_text_101" text-rendering="inherit" font-size="12" dy=".8em" y="463.5" x="1071.5">Hardware connection</text><text id="kity_text_102" text-rendering="inherit" font-size="12" dy=".8em" y="481.5" x="1071.5">(ophyd, ...)</text></g></g><g id="minder_node4"><g id="node_expander1" style="cursor: pointer;" display="none"><path id="kity_path_199" fill="white" stroke="gray" d="M1242.5,452.5A6,6,0,1,1,1230.5,452.5A6,6,0,1,1,1242.5,452.5"></path><path id="kity_path_200" fill="none" stroke="gray"></path></g><path id="node_outline2" fill="none" stroke="none" d="M1247.5,441.5h55a5,5,0,0,1,5,5v12a5,5,0,0,1,-5,5h-55a5,5,0,0,1,-5,-5v-12a5,5,0,0,1,5,-5z"></path><g id="node_text2" fill="black"><text id="kity_text_97" text-rendering="inherit" font-size="12" dy=".8em" y="446.5" x="1252.5">FlexRay</text></g></g><g id="minder_node5"><g id="node_expander2" style="cursor: pointer;" display="none"><path id="kity_path_202" fill="white" stroke="gray" d="M1242.5,504.5A6,6,0,1,1,1230.5,504.5A6,6,0,1,1,1242.5,504.5"></path><path id="kity_path_203" fill="none" stroke="gray"></path></g><path id="node_outline3" fill="none" stroke="none" d="M1247.5,493.5h115a5,5,0,0,1,5,5v12a5,5,0,0,1,-5,5h-115a5,5,0,0,1,-5,-5v-12a5,5,0,0,1,5,-5z"></path><g id="node_text3" fill="black"><text id="kity_text_99" text-rendering="inherit" font-size="12" dy=".8em" y="498.5" x="1252.5">Other hardwares...</text></g></g><g id="minder_node6"><g id="node_expander8" style="cursor: pointer;"><path id="kity_path_220" fill="white" stroke="gray" d="M1061.5,634.5A6,6,0,1,1,1049.5,634.5A6,6,0,1,1,1061.5,634.5"></path><path id="kity_path_221" fill="none" stroke="gray" d="M1051,634.5L1060,634.5"></path></g><path id="node_outline9" fill="none" stroke="none" d="M1066.5,623.5h73a5,5,0,0,1,5,5v12a5,5,0,0,1,-5,5h-73a5,5,0,0,1,-5,-5v-12a5,5,0,0,1,5,-5z"></path><g id="node_text9" fill="black"><text id="kity_text_112" text-rendering="inherit" font-size="12" dy=".8em" y="628.5" x="1071.5">Simulation</text></g></g><g id="minder_node7"><g id="node_expander4" style="cursor: pointer;" display="none"><path id="kity_path_208" fill="white" stroke="gray" d="M1184.5,556.5A6,6,0,1,1,1172.5,556.5A6,6,0,1,1,1184.5,556.5"></path><path id="kity_path_209" fill="none" stroke="gray"></path></g><path id="node_outline5" fill="none" stroke="none" d="M1189.5,545.5h87a5,5,0,0,1,5,5v12a5,5,0,0,1,-5,5h-87a5,5,0,0,1,-5,-5v-12a5,5,0,0,1,5,-5z"></path><g id="node_text5" fill="black"><text id="kity_text_104" text-rendering="inherit" font-size="12" dy=".8em" y="550.5" x="1194.5">Astra-toolbox</text></g></g><g id="minder_node8"><g id="node_expander5" style="cursor: pointer;" display="none"><path id="kity_path_211" fill="white" stroke="gray" d="M1184.5,608.5A6,6,0,1,1,1172.5,608.5A6,6,0,1,1,1184.5,608.5"></path><path id="kity_path_212" fill="none" stroke="gray"></path></g><path id="node_outline6" fill="none" stroke="none" d="M1189.5,597.5h57a5,5,0,0,1,5,5v12a5,5,0,0,1,-5,5h-57a5,5,0,0,1,-5,-5v-12a5,5,0,0,1,5,-5z"></path><g id="node_text6" fill="black"><text id="kity_text_106" text-rendering="inherit" font-size="12" dy=".8em" y="602.5" x="1194.5">GEANT4</text></g></g><g id="minder_node9"><g id="node_expander6" style="cursor: pointer;" display="none"><path id="kity_path_214" fill="white" stroke="gray" d="M1184.5,660.5A6,6,0,1,1,1172.5,660.5A6,6,0,1,1,1184.5,660.5"></path><path id="kity_path_215" fill="none" stroke="gray"></path></g><path id="node_outline7" fill="none" stroke="none" d="M1189.5,649.5h41a5,5,0,0,1,5,5v12a5,5,0,0,1,-5,5h-41a5,5,0,0,1,-5,-5v-12a5,5,0,0,1,5,-5z"></path><g id="node_text7" fill="black"><text id="kity_text_108" text-rendering="inherit" font-size="12" dy=".8em" y="654.5" x="1194.5">GATE</text></g></g><g id="minder_node10"><g id="node_expander7" style="cursor: pointer;" display="none"><path id="kity_path_217" fill="white" stroke="gray" d="M1184.5,712.5A6,6,0,1,1,1172.5,712.5A6,6,0,1,1,1184.5,712.5"></path><path id="kity_path_218" fill="none" stroke="gray"></path></g><path id="node_outline8" fill="none" stroke="none" d="M1189.5,701.5h58a5,5,0,0,1,5,5v12a5,5,0,0,1,-5,5h-58a5,5,0,0,1,-5,-5v-12a5,5,0,0,1,5,-5z"></path><g id="node_text8" fill="black"><text id="kity_text_110" text-rendering="inherit" font-size="12" dy=".8em" y="706.5" x="1194.5">Sirepo...</text></g></g><g id="minder_node11" opacity="1"><g id="node_expander16" style="cursor: pointer;"><path id="kity_path_244" fill="white" stroke="gray" d="M414.5,460.5A6,6,0,1,1,402.5,460.5A6,6,0,1,1,414.5,460.5"></path><path id="kity_path_245" fill="none" stroke="gray" d="M404,460.5L413,460.5"></path></g><path id="node_outline17" fill="rgb(238, 243, 246)" stroke="rgb(115, 161, 191)" d="M418.5,447.5h86a3,3,0,0,1,3,3v20a3,3,0,0,1,-3,3h-86a3,3,0,0,1,-3,-3v-20a3,3,0,0,1,3,-3z" stroke-width="1"></path><g id="node_text17" fill="black"><text id="kity_text_129" text-rendering="inherit" font-size="14" dy=".8em" y="453.5" x="435.5">Storage</text></g></g><g id="minder_node18" opacity="1"><g id="node_expander19" style="cursor: pointer;"><path id="kity_path_253" fill="white" stroke="gray" d="M409.5,253.5A6,6,0,1,1,397.5,253.5A6,6,0,1,1,409.5,253.5"></path><path id="kity_path_254" fill="none" stroke="gray" d="M399,253.5L408,253.5"></path></g><path id="node_outline20" fill="rgb(238, 243, 246)" stroke="rgb(115, 161, 191)" d="M413.5,240.5h96a3,3,0,0,1,3,3v20a3,3,0,0,1,-3,3h-96a3,3,0,0,1,-3,-3v-20a3,3,0,0,1,3,-3z" stroke-width="1"></path><g id="node_text20" fill="black"><text id="kity_text_135" text-rendering="inherit" font-size="14" dy=".8em" y="246.5" x="430.5">Database</text></g></g><g id="minder_node21" opacity="1"><g id="node_expander21" style="cursor: pointer;"><path id="kity_path_259" fill="white" stroke="gray" d="M1004.5,359.5A6,6,0,1,1,992.5,359.5A6,6,0,1,1,1004.5,359.5"></path><path id="kity_path_260" fill="none" stroke="gray" d="M994,359.5L1003,359.5"></path></g><path id="node_outline22" fill="rgb(238, 243, 246)" stroke="rgb(115, 161, 191)" d="M1008.5,346.5h56a3,3,0,0,1,3,3v20a3,3,0,0,1,-3,3h-56a3,3,0,0,1,-3,-3v-20a3,3,0,0,1,3,-3z" stroke-width="1"></path><g id="node_text22" fill="black"><text id="kity_text_139" text-rendering="inherit" font-size="14" dy=".8em" y="352.5" x="1025.5">API</text></g></g><g id="minder_node23" opacity="1"><g id="node_expander29" style="cursor: pointer;"><path id="kity_path_283" fill="white" stroke="gray" d="M1097.5,98.5A6,6,0,1,1,1085.5,98.5A6,6,0,1,1,1097.5,98.5"></path><path id="kity_path_284" fill="none" stroke="gray" d="M1087,98.5L1096,98.5"></path></g><path id="node_outline30" fill="rgb(238, 243, 246)" stroke="rgb(115, 161, 191)" d="M898.5,85.5h183a3,3,0,0,1,3,3v20a3,3,0,0,1,-3,3h-183a3,3,0,0,1,-3,-3v-20a3,3,0,0,1,3,-3z" stroke-width="1"></path><g id="node_text30" fill="black"><text id="kity_text_156" text-rendering="inherit" font-size="14" dy=".8em" y="91.5" x="915.5">Graphic User Interface&#xa0;</text></g></g><g id="minder_node31" opacity="1"><g id="node_expander33" style="cursor: pointer;"><path id="kity_path_295" fill="white" stroke="gray" d="M583.5,667.5A6,6,0,1,1,571.5,667.5A6,6,0,1,1,583.5,667.5"></path><path id="kity_path_296" fill="none" stroke="gray" d="M573,667.5L582,667.5"></path></g><path id="node_outline34" fill="rgb(238, 243, 246)" stroke="rgb(115, 161, 191)" d="M448.5,654.5h119a3,3,0,0,1,3,3v20a3,3,0,0,1,-3,3h-119a3,3,0,0,1,-3,-3v-20a3,3,0,0,1,3,-3z" stroke-width="1"></path><g id="node_text34" fill="black"><text id="kity_text_164" text-rendering="inherit" font-size="14" dy=".8em" y="660.5" x="465.5">Data Process</text></g></g><g id="minder_node19"><g id="node_expander17" style="cursor: pointer;" display="none"><path id="kity_path_247" fill="white" stroke="gray" d="M346.5,226.5A6,6,0,1,1,334.5,226.5A6,6,0,1,1,346.5,226.5"></path><path id="kity_path_248" fill="none" stroke="gray"></path></g><path id="node_outline18" fill="none" stroke="none" d="M267.5,215.5h62a5,5,0,0,1,5,5v12a5,5,0,0,1,-5,5h-62a5,5,0,0,1,-5,-5v-12a5,5,0,0,1,5,-5z"></path><g id="node_text18" fill="black"><text id="kity_text_131" text-rendering="inherit" font-size="12" dy=".8em" y="220.5" x="272.5">GraphQL</text></g></g><g id="minder_node20"><g id="node_expander18" style="cursor: pointer;" display="none"><path id="kity_path_250" fill="white" stroke="gray" d="M340.5,283.5A6,6,0,1,1,328.5,283.5A6,6,0,1,1,340.5,283.5"></path><path id="kity_path_251" fill="none" stroke="gray"></path></g><path id="node_outline19" fill="none" stroke="none" d="M258.5,272.5h65a5,5,0,0,1,5,5v12a5,5,0,0,1,-5,5h-65a5,5,0,0,1,-5,-5v-12a5,5,0,0,1,5,-5z"></path><g id="node_text19" fill="black"><text id="kity_text_133" text-rendering="inherit" font-size="12" dy=".8em" y="277.5" x="263.5">MongoDB</text></g></g><g id="minder_node13"><g id="node_expander10" style="cursor: pointer;" display="none"><path id="kity_path_226" fill="white" stroke="gray" d="M147.5,358.5A6,6,0,1,1,135.5,358.5A6,6,0,1,1,147.5,358.5"></path><path id="kity_path_227" fill="none" stroke="gray"></path></g><path id="node_outline11" fill="none" stroke="none" d="M46.5,347.5h84a5,5,0,0,1,5,5v12a5,5,0,0,1,-5,5h-84a5,5,0,0,1,-5,-5v-12a5,5,0,0,1,5,-5z"></path><g id="node_text11" fill="black"><text id="kity_text_117" text-rendering="inherit" font-size="12" dy=".8em" y="352.5" x="51.5">Google Drive</text></g></g><g id="minder_node14"><g id="node_expander11" style="cursor: pointer;" display="none"><path id="kity_path_229" fill="white" stroke="gray" d="M147.5,410.5A6,6,0,1,1,135.5,410.5A6,6,0,1,1,147.5,410.5"></path><path id="kity_path_230" fill="none" stroke="gray"></path></g><path id="node_outline12" fill="none" stroke="none" d="M47.5,399.5h83a5,5,0,0,1,5,5v12a5,5,0,0,1,-5,5h-83a5,5,0,0,1,-5,-5v-12a5,5,0,0,1,5,-5z"></path><g id="node_text12" fill="black"><text id="kity_text_119" text-rendering="inherit" font-size="12" dy=".8em" y="404.5" x="52.5">AWS Storage</text></g></g><g id="minder_node12"><g id="node_expander12" style="cursor: pointer;"><path id="kity_path_232" fill="white" stroke="gray" d="M266.5,384.5A6,6,0,1,1,254.5,384.5A6,6,0,1,1,266.5,384.5"></path><path id="kity_path_233" fill="none" stroke="gray" d="M256,384.5L265,384.5"></path></g><path id="node_outline13" fill="none" stroke="none" d="M180.5,373.5h69a5,5,0,0,1,5,5v12a5,5,0,0,1,-5,5h-69a5,5,0,0,1,-5,-5v-12a5,5,0,0,1,5,-5z"></path><g id="node_text13" fill="black"><text id="kity_text_121" text-rendering="inherit" font-size="12" dy=".8em" y="378.5" x="185.5">Long-term</text></g></g><g id="minder_node16"><g id="node_expander13" style="cursor: pointer;" display="none"><path id="kity_path_235" fill="white" stroke="gray" d="M146.5,486.5A6,6,0,1,1,134.5,486.5A6,6,0,1,1,146.5,486.5"></path><path id="kity_path_236" fill="none" stroke="gray"></path></g><path id="node_outline14" fill="none" stroke="none" d="M80.5,475.5h49a5,5,0,0,1,5,5v12a5,5,0,0,1,-5,5h-49a5,5,0,0,1,-5,-5v-12a5,5,0,0,1,5,-5z"></path><g id="node_text14" fill="black"><text id="kity_text_123" text-rendering="inherit" font-size="12" dy=".8em" y="480.5" x="85.5">Severs</text></g></g><g id="minder_node17"><g id="node_expander14" style="cursor: pointer;" display="none"><path id="kity_path_238" fill="white" stroke="gray" d="M146.5,538.5A6,6,0,1,1,134.5,538.5A6,6,0,1,1,146.5,538.5"></path><path id="kity_path_239" fill="none" stroke="gray"></path></g><path id="node_outline15" fill="none" stroke="none" d="M25.5,527.5h104a5,5,0,0,1,5,5v12a5,5,0,0,1,-5,5h-104a5,5,0,0,1,-5,-5v-12a5,5,0,0,1,5,-5z"></path><g id="node_text15" fill="black"><text id="kity_text_125" text-rendering="inherit" font-size="12" dy=".8em" y="532.5" x="30.5">Local Hard-drive</text></g></g><g id="minder_node15"><g id="node_expander15" style="cursor: pointer;"><path id="kity_path_241" fill="white" stroke="gray" d="M259.5,512.5A6,6,0,1,1,247.5,512.5A6,6,0,1,1,259.5,512.5"></path><path id="kity_path_242" fill="none" stroke="gray" d="M249,512.5L258,512.5"></path></g><path id="node_outline16" fill="none" stroke="none" d="M179.5,501.5h63a5,5,0,0,1,5,5v12a5,5,0,0,1,-5,5h-63a5,5,0,0,1,-5,-5v-12a5,5,0,0,1,5,-5z"></path><g id="node_text16" fill="black"><text id="kity_text_127" text-rendering="inherit" font-size="12" dy=".8em" y="506.5" x="184.5">Standard</text></g></g><g id="minder_node35" opacity="1"><g id="node_expander34" style="cursor: pointer;" display="none"><path id="kity_path_325" fill="white" stroke="gray" d="M974.5,781.5A6,6,0,1,1,962.5,781.5A6,6,0,1,1,974.5,781.5"></path><path id="kity_path_326" fill="none" stroke="gray"></path></g><path id="node_outline35" fill="rgb(238, 243, 246)" stroke="rgb(115, 161, 191)" d="M858.5,768.5h100a3,3,0,0,1,3,3v20a3,3,0,0,1,-3,3h-100a3,3,0,0,1,-3,-3v-20a3,3,0,0,1,3,-3z" stroke-width="1"></path><g id="node_text35" fill="black"><text id="kity_text_322" text-rendering="inherit" font-size="14" dy=".8em" y="774.5" x="875.5">Algorithm</text></g></g><g id="kity_g_12" display="none"><path id="kity_path_13" fill="none" stroke="rgb(66, 94, 112)" d="M1239.5,225.5h41a5,5,0,0,1,5,5v12a5,5,0,0,1,-5,5h-41a5,5,0,0,1,-5,-5v-12a5,5,0,0,1,5,-5z" stroke-width="5"></path></g><g id="minder_node22"><g id="node_expander20" style="cursor: pointer;" display="none"><path id="kity_path_256" fill="white" stroke="gray" d="M1107.5,359.5A6,6,0,1,1,1095.5,359.5A6,6,0,1,1,1107.5,359.5"></path><path id="kity_path_257" fill="none" stroke="gray"></path></g><path id="node_outline21" fill="none" stroke="none" d="M1112.5,348.5h75a5,5,0,0,1,5,5v12a5,5,0,0,1,-5,5h-75a5,5,0,0,1,-5,-5v-12a5,5,0,0,1,5,-5z"></path><g id="node_text21" fill="black"><text id="kity_text_137" text-rendering="inherit" font-size="12" dy=".8em" y="353.5" x="1117.5">Documents</text></g></g><g id="minder_node40" opacity="1"><g id="node_expander39" style="cursor: pointer;" display="none"><path id="kity_path_375" fill="white" stroke="gray" d="M744.5,139.5A6,6,0,1,1,732.5,139.5A6,6,0,1,1,744.5,139.5"></path><path id="kity_path_376" fill="none" stroke="gray"></path></g><path id="node_outline40" fill="rgb(238, 243, 246)" stroke="rgb(115, 161, 191)" d="M590.5,126.5h138a3,3,0,0,1,3,3v20a3,3,0,0,1,-3,3h-138a3,3,0,0,1,-3,-3v-20a3,3,0,0,1,3,-3z" stroke-width="1"></path><g id="node_text40" fill="black"><text id="kity_text_372" text-rendering="inherit" font-size="14" dy=".8em" y="132.5" x="607.5">Message Broker</text></g></g><g id="minder_node25"><g id="node_expander22" style="cursor: pointer;" display="none"><path id="kity_path_262" fill="white" stroke="gray" d="M1386.5,31.5A6,6,0,1,1,1374.5,31.5A6,6,0,1,1,1386.5,31.5"></path><path id="kity_path_263" fill="none" stroke="gray"></path></g><path id="node_outline23" fill="none" stroke="none" d="M1391.5,20.5h36a5,5,0,0,1,5,5v12a5,5,0,0,1,-5,5h-36a5,5,0,0,1,-5,-5v-12a5,5,0,0,1,5,-5z"></path><g id="node_text23" fill="black"><text id="kity_text_141" text-rendering="inherit" font-size="12" dy=".8em" y="25.5" x="1396.5">Web</text></g></g><g id="minder_node26"><g id="node_expander23" style="cursor: pointer;" display="none"><path id="kity_path_265" fill="white" stroke="gray" d="M1386.5,83.5A6,6,0,1,1,1374.5,83.5A6,6,0,1,1,1386.5,83.5"></path><path id="kity_path_266" fill="none" stroke="gray"></path></g><path id="node_outline24" fill="none" stroke="none" d="M1391.5,72.5h30a5,5,0,0,1,5,5v12a5,5,0,0,1,-5,5h-30a5,5,0,0,1,-5,-5v-12a5,5,0,0,1,5,-5z"></path><g id="node_text24" fill="black"><text id="kity_text_143" text-rendering="inherit" font-size="12" dy=".8em" y="77.5" x="1396.5">IOS</text></g></g><g id="minder_node27"><g id="node_expander24" style="cursor: pointer;" display="none"><path id="kity_path_268" fill="white" stroke="gray" d="M1386.5,135.5A6,6,0,1,1,1374.5,135.5A6,6,0,1,1,1386.5,135.5"></path><path id="kity_path_269" fill="none" stroke="gray"></path></g><path id="node_outline25" fill="none" stroke="none" d="M1391.5,124.5h56a5,5,0,0,1,5,5v12a5,5,0,0,1,-5,5h-56a5,5,0,0,1,-5,-5v-12a5,5,0,0,1,5,-5z"></path><g id="node_text25" fill="black"><text id="kity_text_145" text-rendering="inherit" font-size="12" dy=".8em" y="129.5" x="1396.5">Android</text></g></g><g id="minder_node28"><g id="node_expander25" style="cursor: pointer;" display="none"><path id="kity_path_271" fill="white" stroke="gray" d="M1386.5,187.5A6,6,0,1,1,1374.5,187.5A6,6,0,1,1,1386.5,187.5"></path><path id="kity_path_272" fill="none" stroke="gray"></path></g><path id="node_outline26" fill="none" stroke="none" d="M1391.5,176.5h27a5,5,0,0,1,5,5v12a5,5,0,0,1,-5,5h-27a5,5,0,0,1,-5,-5v-12a5,5,0,0,1,5,-5z"></path><g id="node_text26" fill="black"><text id="kity_text_147" text-rendering="inherit" font-size="12" dy=".8em" y="181.5" x="1396.5">PC</text></g></g><g id="minder_node29"><g id="node_expander26" style="cursor: pointer;" display="none"><path id="kity_path_274" fill="white" stroke="gray" d="M1386.5,239.5A6,6,0,1,1,1374.5,239.5A6,6,0,1,1,1386.5,239.5"></path><path id="kity_path_275" fill="none" stroke="gray"></path></g><path id="node_outline27" fill="none" stroke="none" d="M1391.5,228.5h34a5,5,0,0,1,5,5v12a5,5,0,0,1,-5,5h-34a5,5,0,0,1,-5,-5v-12a5,5,0,0,1,5,-5z"></path><g id="node_text27" fill="black"><text id="kity_text_149" text-rendering="inherit" font-size="12" dy=".8em" y="233.5" x="1396.5">Mac</text></g></g><g id="minder_node30"><g id="node_expander27" style="cursor: pointer;" display="none"><path id="kity_path_277" fill="white" stroke="gray" d="M1386.5,291.5A6,6,0,1,1,1374.5,291.5A6,6,0,1,1,1386.5,291.5"></path><path id="kity_path_278" fill="none" stroke="gray"></path></g><path id="node_outline28" fill="none" stroke="none" d="M1391.5,280.5h41a5,5,0,0,1,5,5v12a5,5,0,0,1,-5,5h-41a5,5,0,0,1,-5,-5v-12a5,5,0,0,1,5,-5z"></path><g id="node_text28" fill="black"><text id="kity_text_151" text-rendering="inherit" font-size="12" dy=".8em" y="285.5" x="1396.5">Linux</text></g></g><g id="minder_node24"><g id="node_expander28" style="cursor: pointer;"><path id="kity_path_280" fill="white" stroke="gray" d="M1186.5,161.5A6,6,0,1,1,1174.5,161.5A6,6,0,1,1,1186.5,161.5"></path><path id="kity_path_281" fill="none" stroke="gray" d="M1176,161.5L1185,161.5"></path></g><path id="node_outline29" fill="none" stroke="none" d="M1191.5,141.5h150a5,5,0,0,1,5,5v30a5,5,0,0,1,-5,5h-150a5,5,0,0,1,-5,-5v-30a5,5,0,0,1,5,-5z"></path><g id="node_text29" fill="black"><text id="kity_text_153" text-rendering="inherit" font-size="12" dy=".8em" y="146.5" x="1196.5">Javascript</text><text id="kity_text_154" text-rendering="inherit" font-size="12" dy=".8em" y="164.5" x="1196.5">(VUE, React, AngularJS...)</text></g></g><g id="minder_node32" opacity="1"><g id="node_expander30" style="cursor: pointer;" display="none"><path id="kity_path_286" fill="white" stroke="gray" d="M357.5,598.5A6,6,0,1,1,345.5,598.5A6,6,0,1,1,357.5,598.5"></path><path id="kity_path_287" fill="none" stroke="gray"></path></g><path id="node_outline31" fill="none" stroke="none" d="M263.5,587.5h77a5,5,0,0,1,5,5v12a5,5,0,0,1,-5,5h-77a5,5,0,0,1,-5,-5v-12a5,5,0,0,1,5,-5z" stroke-width="3"></path><g id="node_text31" fill="black"><text id="kity_text_158" text-rendering="inherit" font-size="12" dy=".8em" y="592.5" x="268.5">Pre-process</text></g></g><g id="minder_node36"><g id="node_expander35" style="cursor: pointer;" display="none"><path id="kity_path_337" fill="white" stroke="gray" d="M196.5,660.5A6,6,0,1,1,184.5,660.5A6,6,0,1,1,196.5,660.5"></path><path id="kity_path_338" fill="none" stroke="gray"></path></g><path id="node_outline36" fill="none" stroke="none" d="M129.5,649.5h50a5,5,0,0,1,5,5v12a5,5,0,0,1,-5,5h-50a5,5,0,0,1,-5,-5v-12a5,5,0,0,1,5,-5z" stroke-width="3"></path><g id="node_text36" fill="black"><text id="kity_text_334" text-rendering="inherit" font-size="12" dy=".8em" y="654.5" x="134.5">Resnet</text></g></g><g id="minder_node37"><g id="node_expander36" style="cursor: pointer;" display="none"><path id="kity_path_345" fill="white" stroke="gray" d="M196.5,712.5A6,6,0,1,1,184.5,712.5A6,6,0,1,1,196.5,712.5"></path><path id="kity_path_346" fill="none" stroke="gray"></path></g><path id="node_outline37" fill="none" stroke="none" d="M143.5,701.5h36a5,5,0,0,1,5,5v12a5,5,0,0,1,-5,5h-36a5,5,0,0,1,-5,-5v-12a5,5,0,0,1,5,-5z" stroke-width="3"></path><g id="node_text37" fill="black"><text id="kity_text_342" text-rendering="inherit" font-size="12" dy=".8em" y="706.5" x="148.5">GAN</text></g></g><g id="minder_node38"><g id="node_expander37" style="cursor: pointer;" display="none"><path id="kity_path_359" fill="white" stroke="gray" d="M196.5,764.5A6,6,0,1,1,184.5,764.5A6,6,0,1,1,196.5,764.5"></path><path id="kity_path_360" fill="none" stroke="gray"></path></g><path id="node_outline38" fill="none" stroke="none" d="M136.5,753.5h43a5,5,0,0,1,5,5v12a5,5,0,0,1,-5,5h-43a5,5,0,0,1,-5,-5v-12a5,5,0,0,1,5,-5z" stroke-width="3"></path><g id="node_text38" fill="black"><text id="kity_text_356" text-rendering="inherit" font-size="12" dy=".8em" y="758.5" x="141.5">U-net</text></g></g><g id="minder_node39"><g id="node_expander38" style="cursor: pointer;" display="none"><path id="kity_path_367" fill="white" stroke="gray" d="M196.5,816.5A6,6,0,1,1,184.5,816.5A6,6,0,1,1,196.5,816.5"></path><path id="kity_path_368" fill="none" stroke="gray"></path></g><path id="node_outline39" fill="none" stroke="none" d="M157.5,805.5h22a5,5,0,0,1,5,5v12a5,5,0,0,1,-5,5h-22a5,5,0,0,1,-5,-5v-12a5,5,0,0,1,5,-5z" stroke-width="3"></path><g id="node_text39" fill="black"><text id="kity_text_364" text-rendering="inherit" font-size="12" dy=".8em" y="810.5" x="162.5">...</text></g></g><g id="minder_node33" opacity="1"><g id="node_expander31" style="cursor: pointer;"><path id="kity_path_289" fill="white" stroke="gray" d="M385.5,738.5A6,6,0,1,1,373.5,738.5A6,6,0,1,1,385.5,738.5"></path><path id="kity_path_290" fill="none" stroke="gray" d="M375,738.5L384,738.5"></path></g><path id="node_outline32" fill="none" stroke="none" d="M229.5,718.5h139a5,5,0,0,1,5,5v30a5,5,0,0,1,-5,5h-139a5,5,0,0,1,-5,-5v-30a5,5,0,0,1,5,-5z" stroke-width="3"></path><g id="node_text32" fill="black"><text id="kity_text_160" text-rendering="inherit" font-size="12" dy=".8em" y="723.5" x="234.5">Machine Learning</text><text id="kity_text_347" text-rendering="inherit" font-size="12" dy=".8em" y="741.5" x="234.5">(Tensorflow, Pytorch...)</text></g></g></g></g></svg>